<svg width="42" height="49" viewBox="0 0 42 49" fill="none" xmlns="http://www.w3.org/2000/svg">
<path d="M2 47V20.6513L21.8507 2H40V47H2Z" stroke="#290A0A" stroke-width="3"/>
<path d="M2 20H21V2" stroke="#290A0A" stroke-width="3"/>
<path d="M19.6882 30.4922H16.8885C16.8374 30.13 16.733 29.8082 16.5753 29.527C16.4176 29.2415 16.2152 28.9986 15.968 28.7983C15.7209 28.598 15.4354 28.4446 15.1115 28.3381C14.7919 28.2315 14.4446 28.1783 14.0696 28.1783C13.392 28.1783 12.8018 28.3466 12.299 28.6832C11.7962 29.0156 11.4063 29.5014 11.1293 30.1406C10.8523 30.7756 10.7138 31.5469 10.7138 32.4545C10.7138 33.3878 10.8523 34.1719 11.1293 34.8068C11.4105 35.4418 11.8026 35.9212 12.3054 36.245C12.8082 36.5689 13.3899 36.7308 14.0504 36.7308C14.4212 36.7308 14.7642 36.6818 15.0795 36.5838C15.3991 36.4858 15.6825 36.343 15.9297 36.1555C16.1768 35.9638 16.3814 35.7315 16.5433 35.4588C16.7095 35.1861 16.8246 34.875 16.8885 34.5256L19.6882 34.5384C19.6158 35.1392 19.4347 35.7188 19.1449 36.277C18.8594 36.831 18.4737 37.3274 17.9879 37.7663C17.5064 38.201 16.9311 38.5462 16.2621 38.8018C15.5973 39.0533 14.8452 39.179 14.0057 39.179C12.8381 39.179 11.794 38.9148 10.8736 38.3864C9.95739 37.858 9.23295 37.093 8.70028 36.0916C8.17188 35.0902 7.90767 33.8778 7.90767 32.4545C7.90767 31.027 8.17614 29.8125 8.71307 28.8111C9.25 27.8097 9.97869 27.0469 10.8991 26.5227C11.8196 25.9943 12.8551 25.7301 14.0057 25.7301C14.7642 25.7301 15.4673 25.8366 16.1151 26.0497C16.767 26.2628 17.3445 26.5739 17.8473 26.983C18.3501 27.3878 18.7592 27.8842 19.0746 28.4723C19.3942 29.0604 19.5987 29.7337 19.6882 30.4922ZM24.038 25.9091L27.2021 35.8551H27.3235L30.494 25.9091H33.5621L29.0494 39H25.4826L20.9634 25.9091H24.038Z" fill="#290A0A"/>
</svg>
