<svg width="21" height="23" viewBox="0 0 21 23" fill="none" xmlns="http://www.w3.org/2000/svg">
<path d="M7.91424 12.5006C7.91424 13.1771 7.15889 13.1771 6.40353 12.5006C5.64817 11.8241 4.81523 10.7833 3.38209 10.4711C2.5222 10.2838 1.87136 9.79458 1.116 11.1476C0.360641 12.5006 3.51798 13.7558 4.13744 14.5301L6.4035 17.2361L8.6696 19.9422C9.23925 20.4881 9.51448 20.8449 10.1803 21.2952C11.448 22.1525 12.3713 21.8881 13.9571 21.9717C15.8196 22.0698 17.4049 21.9783 18.4893 20.6187C19.0315 19.9388 19.2446 19.2657 19.2446 19.2657L20 15.2066L20 11.1476C20 11.1476 19.2447 9.79458 18.4893 9.79458C17.7339 9.79458 16.9785 10.4711 16.9785 10.4711C16.9785 10.4711 16.3022 8.44156 15.4678 8.44156C14.6335 8.44156 13.9571 9.79458 13.9571 9.79458C13.9571 9.79458 13.2018 7.08855 12.4464 7.08855C11.691 7.08855 10.9357 8.44156 10.9357 8.44156V2.35301C10.9357 2.35301 10.2593 1 9.42496 1C8.59062 1 7.91424 2.35301 7.91424 2.35301V12.5006Z" fill="white"/>
<path d="M10.9357 12.5006C10.9357 11.4438 10.9357 8.44156 10.9357 8.44156M10.9357 8.44156V2.35301C10.9357 2.35301 10.2593 1 9.42496 1C8.59062 1 7.91424 2.35301 7.91424 2.35301C7.91424 2.35301 7.91424 11.8241 7.91424 12.5006C7.91424 13.1771 7.15888 13.1771 6.40353 12.5006C5.64817 11.8241 4.81523 10.7833 3.38209 10.4711C2.5222 10.2838 1.87136 9.79458 1.116 11.1476C0.360641 12.5006 3.51798 13.7558 4.13744 14.5301L6.4035 17.2361L8.6696 19.9422C9.23925 20.4881 9.51448 20.8449 10.1803 21.2952C11.448 22.1525 12.3713 21.8881 13.9571 21.9717C15.8196 22.0698 17.4049 21.9783 18.4893 20.6187C19.0315 19.9388 19.2446 19.2657 19.2446 19.2657L20 15.2066L20 11.1476C20 11.1476 19.2447 9.79458 18.4893 9.79458C17.7339 9.79458 16.9786 10.4711 16.9786 10.4711M10.9357 8.44156C10.9357 8.44156 11.691 7.08855 12.4464 7.08855C13.2018 7.08855 13.9571 9.79458 13.9571 9.79458M13.9571 9.79458L13.9571 12.5006M13.9571 9.79458C13.9571 9.79458 14.6335 8.44156 15.4678 8.44156C16.3022 8.44156 16.9786 10.4711 16.9786 10.4711M16.9786 10.4711L16.9786 12.5006" stroke="#290A0A" stroke-width="1.5"/>
</svg>
