<svg width="34" height="33" viewBox="0 0 34 33" fill="none" xmlns="http://www.w3.org/2000/svg">
<path d="M25.7645 0.742156C25.969 0.926467 25.969 0.926467 26.1524 1.15556C26.2435 1.26726 26.2435 1.26726 26.3365 1.38121C26.3993 1.46136 26.462 1.54151 26.5267 1.62409C26.6396 1.73813 26.6396 1.73813 26.7549 1.85448C27.0404 2.29634 27.0097 2.62658 26.9847 3.14164C26.982 3.23358 26.9792 3.32552 26.9763 3.42025C26.9669 3.71277 26.9543 4.00506 26.9418 4.29745C26.9353 4.49583 26.929 4.6942 26.9229 4.89259C26.9164 5.08064 26.9098 5.26868 26.9031 5.45672C26.8999 5.54605 26.8967 5.63539 26.8934 5.72743C26.8662 6.35141 26.8662 6.35141 26.7444 6.47473C26.5731 6.48829 26.4012 6.49434 26.2293 6.49737C26.1188 6.49956 26.0082 6.50176 25.8942 6.50403C25.7728 6.50587 25.6514 6.50771 25.5263 6.50961C25.4006 6.51191 25.275 6.5142 25.1455 6.51657C24.7348 6.52387 24.3241 6.53034 23.9134 6.53674C23.6339 6.54146 23.3545 6.54619 23.0751 6.55093C21.0678 6.58376 19.0611 6.60004 17.0536 6.58497C17.2062 7.14829 17.3593 7.71147 17.5128 8.27453C17.565 8.46623 17.6171 8.65797 17.669 8.84975C17.7435 9.12485 17.8185 9.39981 17.8936 9.67476C17.9169 9.761 17.9401 9.84724 17.9641 9.9361C18.0468 10.332 18.0468 10.332 18.2513 10.6639C18.2866 10.5554 18.2866 10.5554 18.3226 10.4448C18.4305 10.1174 18.5416 9.79127 18.6528 9.46504C18.7083 9.2943 18.7083 9.2943 18.7649 9.1201C18.8212 8.95703 18.8212 8.95703 18.8787 8.79067C18.9123 8.69022 18.946 8.58976 18.9806 8.48627C19.1224 8.2386 19.1224 8.2386 19.347 8.0952C19.7925 7.98783 20.2164 7.99097 20.6728 7.99658C20.8166 7.99705 20.8166 7.99705 20.9634 7.99753C21.2685 7.99876 21.5735 8.00153 21.8786 8.00434C22.0859 8.00544 22.2933 8.00645 22.5006 8.00735C23.0079 8.00978 23.5151 8.01358 24.0223 8.01812C24.0706 8.12154 24.0706 8.12154 24.1198 8.22705C24.2581 8.49387 24.407 8.63175 24.6348 8.82426C25.0253 9.15714 25.4043 9.49976 25.7798 9.85003C25.9685 10.0205 25.9685 10.0205 26.1929 10.0186C26.4178 10.1127 26.4178 10.1127 26.5817 10.4463C26.6341 10.5934 26.6845 10.7412 26.7334 10.8896C26.7748 11.0084 26.7748 11.0084 26.8171 11.1297C26.9034 11.3781 26.9873 11.6273 27.0711 11.8766C27.1221 12.0243 27.1733 12.1719 27.2247 12.3195C27.3803 12.7681 27.5322 13.2179 27.6836 13.668C27.7408 13.8375 27.798 14.0069 27.8552 14.1764C28.2606 15.379 28.6586 16.5842 29.054 17.7902C29.5925 19.4319 30.1397 21.0705 30.6884 22.7087C30.7594 22.9208 30.8304 23.1329 30.9014 23.345C31.376 24.7629 31.8518 26.1804 32.3333 27.5959C32.4045 27.8056 32.4757 28.0152 32.5469 28.2248C32.676 28.6048 32.8058 28.9846 32.936 29.3642C32.9935 29.5331 33.051 29.702 33.1083 29.871C33.1478 29.9873 33.1478 29.9873 33.1881 30.1059C33.3238 30.5132 33.4344 30.9149 33.5149 31.3368C33.5444 31.4633 33.5739 31.5898 33.6042 31.7201C33.712 31.7565 33.8198 31.7929 33.9309 31.8303C33.8901 32.0991 33.8901 32.0991 33.822 32.3816C33.2995 32.646 32.5411 32.5657 31.9609 32.5896C31.7781 32.5978 31.5955 32.6077 31.4129 32.6192C29.7008 32.7264 29.7008 32.7264 29.1306 32.2369C28.9002 31.9831 28.8136 31.8315 28.7044 31.4996C28.5613 31.422 28.4156 31.3493 28.2688 31.2791C27.7649 30.9434 27.5699 30.5747 27.3637 30.0182C27.3152 29.8935 27.3152 29.8935 27.2656 29.7662C27.1001 29.338 26.941 28.9074 26.781 28.477C26.7167 28.304 26.6523 28.1311 26.5879 27.9581C26.5541 27.8669 26.5202 27.7757 26.4853 27.6817C26.0768 26.592 25.6374 25.5151 25.1996 24.4373C25.1617 24.344 25.1239 24.2507 25.0848 24.1547C24.6607 23.1109 24.2333 22.0685 23.8045 21.0266C22.8703 20.9903 21.936 20.9539 20.9735 20.9164C21.1015 21.3837 21.1015 21.3837 21.2321 21.8604C21.2585 21.9569 21.285 22.0535 21.3122 22.153C21.4512 22.6601 21.5922 23.1666 21.7357 23.6725C21.4747 23.9367 21.4014 23.9241 21.0441 23.9386C20.9051 23.945 20.9051 23.945 20.7633 23.9515C20.6181 23.9566 20.6181 23.9566 20.4699 23.9618C20.3722 23.9661 20.2745 23.9704 20.1738 23.9748C19.9323 23.9852 19.6907 23.9946 19.4491 24.0032C19.4317 24.0738 19.4144 24.1445 19.3965 24.2173C19.181 25.0588 18.8953 25.8598 18.5848 26.6697C18.5057 26.878 18.4268 27.0864 18.3479 27.2948C18.2928 27.4402 18.2377 27.5856 18.1825 27.7309C17.8531 28.5993 17.5317 29.4707 17.2101 30.3421C17.1268 30.5676 17.0435 30.7932 16.9602 31.0187C16.8879 31.2141 16.8158 31.4095 16.7437 31.6049C16.7022 31.7157 16.6607 31.8265 16.618 31.9406C16.5811 32.044 16.5442 32.1474 16.5062 32.2539C16.4003 32.4918 16.4003 32.4918 16.1825 32.602C15.7264 32.6209 15.2707 32.6013 14.8146 32.5883C14.6888 32.5871 14.5629 32.586 14.4333 32.5848C13.6055 32.5601 13.0495 32.4235 12.3715 31.9406C12.2638 31.8684 12.1562 31.7962 12.0452 31.7218C11.9136 31.6255 11.9136 31.6255 11.7794 31.5272C11.4341 31.2727 11.4341 31.2727 11.0648 31.0587C11.0011 30.3179 11.2287 29.7442 11.4906 29.0592C11.5347 28.9408 11.5788 28.8223 11.6243 28.7002C11.7655 28.3215 11.9085 27.9434 12.0516 27.5654C12.145 27.3167 12.2382 27.068 12.3313 26.8193C12.377 26.6974 12.4226 26.5755 12.4697 26.4499C12.5609 26.2053 12.6516 25.9606 12.7417 25.7156C12.9476 25.1564 13.1577 24.602 13.3905 24.0537C13.4289 23.9582 13.4672 23.8626 13.5068 23.7642C13.5762 23.5914 13.6494 23.42 13.7278 23.2511C14.0451 22.4326 13.7054 21.7176 13.4318 20.9357C13.3003 20.5435 13.1954 20.1448 13.0905 19.7446C13.0688 19.663 13.0472 19.5814 13.0249 19.4973C12.9563 19.2385 12.8882 18.9795 12.8202 18.7206C12.7708 18.5337 12.7214 18.3469 12.6719 18.16C12.5414 17.6667 12.4113 17.1732 12.2814 16.6797C12.1472 16.1702 12.0126 15.6609 11.878 15.1515C11.6665 14.3507 11.4553 13.5498 11.2442 12.7489C10.9996 11.821 10.754 10.8934 10.5081 9.96587C10.4172 9.6227 10.3263 9.27952 10.2355 8.93634C10.1807 8.72948 10.1259 8.52263 10.0709 8.31581C9.99734 8.03865 9.92408 7.76141 9.85092 7.48413C9.82995 7.40546 9.80898 7.32679 9.78737 7.24574C9.64931 6.72042 9.64931 6.72042 9.64931 6.47473C9.53294 6.47864 9.53294 6.47864 9.41422 6.48262C8.67759 6.50683 7.94094 6.52817 7.20415 6.54641C6.82548 6.55588 6.44691 6.5664 6.06836 6.57945C5.6316 6.59446 5.19484 6.60467 4.75795 6.61469C4.62417 6.61994 4.49039 6.6252 4.35256 6.63061C3.03816 6.65361 2.04812 6.14928 0.938428 5.48255C0.912243 3.95758 0.947457 2.47411 1.1562 0.96264C1.64743 0.712022 2.11159 0.712046 2.64925 0.716384C2.79245 0.716218 2.79245 0.716218 2.93854 0.716049C3.25837 0.715944 3.57817 0.717415 3.898 0.718875C4.12729 0.719118 4.35659 0.719262 4.58589 0.719314C5.07956 0.719638 5.57323 0.720657 6.0669 0.722214C6.84685 0.724666 7.6268 0.72556 8.40676 0.726238C9.63973 0.727493 10.8727 0.729778 12.1057 0.73251C14.3154 0.737399 16.5252 0.741051 18.735 0.743562C19.511 0.744491 20.2871 0.746039 21.0631 0.748078C21.5448 0.749248 22.0265 0.749976 22.5083 0.750592C22.7324 0.750976 22.9565 0.751552 23.1806 0.75233C23.4855 0.753366 23.7903 0.753733 24.0951 0.75393C24.1848 0.754401 24.2744 0.754873 24.3668 0.755358C24.8845 0.754826 25.2669 0.587638 25.7645 0.742156ZM2.02729 1.73433C1.93413 2.76832 1.93413 2.76832 1.9116 3.79448C1.91258 3.92678 1.91356 4.05908 1.91457 4.19539C1.91584 4.29274 1.9171 4.39008 1.9184 4.49038C2.01702 4.49029 2.11563 4.4902 2.21723 4.49011C3.14651 4.48987 4.07572 4.49278 5.00497 4.49923C5.48273 4.50243 5.96042 4.50442 6.43818 4.50362C6.89925 4.50289 7.36021 4.50537 7.82125 4.51006C7.99715 4.51129 8.17307 4.51136 8.34897 4.51027C8.59543 4.50893 8.84154 4.51169 9.08798 4.51541C9.29834 4.51614 9.29834 4.51614 9.51295 4.51689C9.86709 4.60062 9.86709 4.60062 10.123 4.90325C10.275 5.2069 10.3883 5.46881 10.4709 5.79678C10.4973 5.89897 10.5237 6.00116 10.5509 6.10645C10.5918 6.27234 10.5918 6.27234 10.6335 6.44157C10.679 6.61937 10.679 6.61937 10.7254 6.80076C10.7914 7.05899 10.8568 7.31737 10.9216 7.57588C11.0799 8.20647 11.2415 8.83619 11.4028 9.466C11.4602 9.69022 11.5174 9.91447 11.5746 10.1387C12.0112 11.8489 12.4654 13.5543 12.9197 15.2598C13.0844 15.8779 13.2489 16.4962 13.4133 17.1144C13.4704 17.3291 13.5275 17.5437 13.5846 17.7584C13.8739 18.8467 14.1591 19.9361 14.4403 21.0266C14.6868 20.7771 14.7528 20.5962 14.8744 20.2671C14.9162 20.1549 14.9579 20.0426 15.001 19.927C15.0454 19.8051 15.0899 19.6833 15.1357 19.5578C15.1816 19.4327 15.2275 19.3076 15.2747 19.1787C15.3716 18.9135 15.4682 18.6482 15.5644 18.3827C15.7118 17.9773 15.8617 17.5729 16.0117 17.1684C16.1055 16.9107 16.1992 16.653 16.2926 16.3952C16.3378 16.2745 16.3829 16.1538 16.4294 16.0294C16.6528 15.4039 16.7948 14.9632 16.618 14.3019C16.5997 14.2267 16.5814 14.1515 16.5626 14.074C16.4979 13.8112 16.4275 13.5505 16.356 13.2895C16.3298 13.1924 16.3036 13.0953 16.2766 12.9952C16.1912 12.6796 16.1052 12.3642 16.0191 12.0488C15.9601 11.8308 15.9011 11.6127 15.8421 11.3946C15.5692 10.3877 15.2933 9.3818 15.0107 8.37769C14.9879 8.29649 14.9651 8.21528 14.9416 8.13162C14.8364 7.75726 14.7305 7.38314 14.6232 7.00939C14.1235 5.24221 14.1235 5.24221 14.4403 4.60062C17.8539 4.56424 21.2675 4.52786 24.7845 4.49038C24.8191 3.10343 24.8191 3.10343 24.6756 1.73433C17.2017 1.73433 9.72771 1.73433 2.02729 1.73433ZM19.8846 8.90005C19.5626 9.68258 19.2456 10.4574 18.9586 11.2522C18.9243 11.3466 18.8899 11.441 18.8545 11.5383C18.7804 11.7419 18.7065 11.9456 18.6327 12.1493C18.5132 12.4788 18.3935 12.8081 18.2736 13.1375C18.1454 13.4898 18.0172 13.8422 17.8891 14.1946C17.4405 15.4287 16.9893 16.6617 16.5379 17.8947C15.9618 19.4683 15.3861 21.042 14.8116 22.6161C14.7718 22.7253 14.7319 22.8345 14.6909 22.947C14.4976 23.4766 14.3044 24.0063 14.1113 24.536C13.7529 25.519 13.3932 26.5016 13.0307 27.4831C12.9634 27.6657 12.896 27.8484 12.8287 28.031C12.7041 28.3688 12.5791 28.7063 12.4538 29.0438C12.399 29.1923 12.3442 29.3409 12.2894 29.4894C12.2419 29.6176 12.1943 29.7459 12.1454 29.878C12.0331 30.1589 12.0331 30.1589 12.0448 30.3972C12.8353 30.3972 13.6258 30.3972 14.4403 30.3972C14.5666 30.0695 14.693 29.7418 14.8231 29.4042C16.3983 25.3203 16.3983 25.3203 17.1284 23.4726C17.1767 23.3505 17.2249 23.2283 17.2746 23.1025C17.6665 22.1138 18.0684 21.1299 18.4691 20.1447C21.3796 20.0901 21.3796 20.0901 24.3489 20.0345C24.4208 20.2164 24.4927 20.3983 24.5667 20.5857C24.635 20.7528 24.7036 20.9197 24.7726 21.0865C24.8131 21.1848 24.8537 21.2831 24.8955 21.3844C24.9618 21.5449 24.9618 21.5449 25.0295 21.7088C25.3659 22.5243 25.7004 23.3406 26.032 24.1582C26.0641 24.2374 26.0963 24.3167 26.1294 24.3983C26.1949 24.5599 26.2604 24.7214 26.3259 24.883C26.8947 26.2853 27.4672 27.6856 28.0665 29.0749C28.1295 29.2232 28.1908 29.3723 28.2504 29.522C28.3893 29.9241 28.3893 29.9241 28.7044 30.1767C28.878 30.186 29.052 30.1885 29.2258 30.1875C29.3283 30.1871 29.4308 30.1868 29.5363 30.1864C29.6436 30.1855 29.7508 30.1846 29.8613 30.1836C30.0234 30.1829 30.0234 30.1829 30.1888 30.1821C30.4562 30.1808 30.7236 30.179 30.991 30.1767C30.7521 29.3019 30.4446 28.456 30.1284 27.6076C29.5581 26.0765 29.0068 24.5392 28.4662 22.9972C27.7989 21.0957 27.1159 19.2004 26.4266 17.307C25.9653 16.0393 25.5063 14.7708 25.0507 13.5009C25.013 13.3957 25.013 13.3957 24.9745 13.2884C24.7034 12.5328 24.4326 11.7771 24.1621 11.0213C24.0734 10.7737 23.9847 10.5261 23.896 10.2785C23.8551 10.1642 23.8143 10.0498 23.7722 9.93204C23.7348 9.82789 23.6975 9.72374 23.659 9.61643C23.6102 9.48004 23.6102 9.48004 23.5604 9.34089C23.4808 9.11725 23.4808 9.11725 23.369 8.90005C22.2191 8.90005 21.0693 8.90005 19.8846 8.90005Z" fill="#0D0000"/>
<path d="M21.7615 10.706C22.1643 10.9647 22.2336 11.3255 22.3634 11.7568C22.393 11.8497 22.4226 11.9426 22.4531 12.0383C22.5217 12.2534 22.5894 12.4688 22.6565 12.6843C22.77 13.0415 22.8881 13.3968 23.0082 13.7519C23.1186 14.0786 23.2276 14.4058 23.3365 14.7331C23.391 14.8961 23.4459 15.0589 23.5012 15.2216C23.5798 15.4534 23.6563 15.6857 23.7324 15.9183C23.7563 15.9873 23.7802 16.0563 23.8048 16.1275C23.956 16.5987 23.9732 16.9603 23.8459 17.4389C23.3547 17.758 22.8737 17.669 22.2958 17.6536C22.0988 17.6488 21.9018 17.6454 21.7048 17.6427C21.3455 17.6377 20.9864 17.6297 20.6271 17.6211C20.5093 17.6197 20.3914 17.6182 20.27 17.6167C20.1584 17.6133 20.0468 17.61 19.9318 17.6065C19.8316 17.6043 19.7315 17.6021 19.6283 17.5999C19.2859 17.5278 19.1539 17.3826 18.9309 17.1265C19.1795 16.2669 19.4819 15.4265 19.7882 14.5853C19.8715 14.3565 19.9544 14.1275 20.0372 13.8985C20.1734 13.5226 20.3111 13.1471 20.4498 12.772C20.5069 12.6168 20.5636 12.4615 20.62 12.3061C20.7041 12.0741 20.7896 11.8426 20.8755 11.6111C20.9008 11.5404 20.9261 11.4697 20.9522 11.3968C21.2385 10.6349 21.2385 10.6349 21.7615 10.706ZM22.1364 14.2106C21.9573 14.5855 21.7796 14.9609 21.6021 15.3366C21.5511 15.4432 21.5002 15.5499 21.4477 15.6598C21.3995 15.7621 21.3513 15.8645 21.3016 15.9699C21.2568 16.0643 21.2121 16.1586 21.166 16.2558C21.0485 16.5062 21.0485 16.5062 21.0679 16.814C21.7025 16.814 22.3372 16.814 22.9911 16.814C22.8119 15.9246 22.5274 15.0722 22.2432 14.2106C22.2079 14.2106 22.1727 14.2106 22.1364 14.2106Z" fill="#0D0000"/>
</svg>
