<svg width="45" height="45" viewBox="0 0 45 45" fill="none" xmlns="http://www.w3.org/2000/svg">
<rect x="0.75" y="0.75" width="43.5" height="43.5" fill="#FDFCEB" stroke="#290A0A" stroke-width="1.5"/>
<rect x="6.125" y="15.9688" width="32.75" height="20.0938" rx="1.5" fill="#290A0A" stroke="#FDFCEB"/>
<path d="M13.3594 11.9532V15.9671H16.875V13.3594C16.875 13.3594 16.875 12.6562 17.5781 11.9531C18.2812 11.25 18.9844 11.25 18.9844 11.25H26.0156C26.0156 11.25 26.7188 11.25 27.4219 11.9531C28.125 12.6562 28.125 12.9143 28.125 13.3594V15.75H31.6406V11.9532C31.6406 11.9532 31.2665 10.1727 30.2344 9.1406C29.2022 8.10851 27.4219 7.73444 27.4219 7.73444H17.5781C17.5781 7.73444 15.9306 7.97563 14.7656 9.1406C13.6006 10.3056 13.3594 11.9532 13.3594 11.9532Z" fill="#290A0A"/>
<path d="M6.32812 23.2031C6.32812 23.2031 18.9844 28.125 22.5 28.125C26.0156 28.125 38.8636 23.2031 38.8636 23.2031M13.3594 15.9671V11.9532C13.3594 11.9532 13.6006 10.3056 14.7656 9.1406C15.9306 7.97563 17.5781 7.73444 17.5781 7.73444H27.4219C27.4219 7.73444 29.2022 8.10851 30.2344 9.1406C31.2665 10.1727 31.6406 11.9532 31.6406 11.9532V15.75H28.125V13.3594C28.125 12.9143 28.125 12.6562 27.4219 11.9531C26.7187 11.25 26.0156 11.25 26.0156 11.25H18.9844C18.9844 11.25 18.2812 11.25 17.5781 11.9531C16.875 12.6562 16.875 13.3594 16.875 13.3594V15.9671H13.3594Z" stroke="#FDFCEB"/>
</svg>
